# xmcd
#
# Track frame offsets:
#	150
#	14257
#	27801
#	42507
#	58603
#	75846
#	94309
#	125611
#	146652
#	160739
#	179511
#	195215
#	210002
#	228327
#	246387
#	265380
#	274766
#	297512
#	310383
#
# Disc length: 4390 seconds
#
# Revision: 2
# Processed by: cddbd v1.5.2PL0 Copyright (c) Steve Scherf et al.
# Submitted via: audiograbber 1.83.01
#
DISCID=09112413
DTITLE=Various Artist - Songs From The 100 Best Australian Albums [Disc 4]
DYEAR=2010
DGENRE=Rock
TTITLE0=The Cruel Sea - The Honeymoon Is Over
TTITLE1=The Angels - Take A Long Line
TTITLE2=The Hummingbirds - Blush
TTITLE3=Paul Kelly and The Stormwater Boys - They Thought I Was Asleep
TTITLE4=Chain - Black And Blue (Single Version)
TTITLE5=Dragon - Are You Old Enough
TTITLE6=Billy Thorpe and The Aztecs - Most People I Know (Live At Sunbury)
TTITLE7=The Scientists - Revhead
TTITLE8=Crowded House - Better Be Home Soon
TTITLE9=Died Pretty - Sweetheart
TTITLE10=Axiom - A Little Ray Of Sunshine
TTITLE11=Bob Evans - Don't You Think It's Time
TTITLE12=Dirty Three - Sirena
TTITLE13=Renee Geyer - Heading In The Right Direction
TTITLE14=The Church - Almost With You
TTITLE15=The Vines - Get Free
TTITLE16=John Farnham - You're The Voice
TTITLE17=The Loved Ones - The Loved One
TTITLE18=The Sleepy Jackson - Good Dancers
EXTD=
EXTT0=
EXTT1=
EXTT2=
EXTT3=
EXTT4=
EXTT5=
EXTT6=
EXTT7=
EXTT8=
EXTT9=
EXTT10=
EXTT11=
EXTT12=
EXTT13=
EXTT14=
EXTT15=
EXTT16=
EXTT17=
EXTT18=
PLAYORDER=
